<svg width="308" height="88" viewBox="0 0 308 88" fill="none" xmlns="http://www.w3.org/2000/svg">
<path d="M247.713 56.9808C247.713 39.0053 260.399 23.4971 278.438 23.4971C294.033 23.4971 307.533 34.7758 307.533 51.1065L265.287 54.7486C265.519 64.3825 272.037 76.0137 283.908 76.0137C290.774 76.0137 297.757 71.4317 301.016 66.1448L307.999 72.4891C302.296 81.3006 291.356 87.7624 280.183 87.7624C262.493 87.7624 247.713 74.4864 247.713 56.9808ZM265.287 46.642L293.567 44.7622C292.753 37.3605 287.981 30.8987 280.067 30.8987C269.825 30.8987 266.45 37.478 265.287 46.642Z" fill="#008236"/>
<path d="M249.967 72.374V81.6554C244.498 85.0625 238.562 86.7074 232.045 86.7074C214.355 86.7074 198.992 74.6062 198.992 55.8083C198.992 36.7754 213.54 23.7344 232.045 23.7344C236.467 23.7344 243.101 24.6743 246.942 26.789V37.4803C243.334 32.6634 238.329 29.9612 232.277 29.9612C221.454 29.9612 216.1 37.0104 216.1 47.4667C216.1 59.8029 226.226 76.486 239.726 76.486C243.799 76.486 247.174 75.3111 249.967 72.374Z" fill="#008236"/>
<path d="M169.761 23.2637C187.102 23.2637 203.047 35.4823 203.047 54.3977C203.047 73.6656 188.033 87.999 169.761 87.999C152.071 87.999 136.709 75.5454 136.709 56.2775C136.709 36.6572 151.257 23.2637 169.761 23.2637ZM171.973 80.5973C180.469 80.5973 183.378 66.2639 183.378 59.3322C183.378 48.5234 178.839 28.3156 167.201 30.5479C158.472 32.3102 156.261 44.6463 156.261 50.9906C156.261 60.742 159.52 80.5973 171.973 80.5973Z" fill="#008236"/>
<path d="M99.9788 86.1211L79.1465 24.793H95.4399L109.522 74.255H111.268L125.35 24.793H141.178L120.229 86.1211H99.9788Z" fill="#008236"/>
<path d="M24.1592 86.1165V48.6382V24.6709H36.3793L36.0301 43.4688H38.125C39.2112 38.8476 40.6466 35.0489 42.4311 32.0726C44.2932 29.0962 46.6597 26.864 49.5304 25.3758C52.4012 23.8876 55.7375 23.1436 59.5393 23.1436C66.4446 23.1436 71.6818 25.6108 75.2508 30.5452C78.8975 35.4797 80.7208 43.1163 80.7208 53.4552V86.1165H65.9403V54.9825C65.9403 48.3249 64.9316 43.4688 62.9143 40.4141C60.9746 37.2811 58.0651 35.7147 54.1857 35.7147C50.927 35.7147 48.1726 36.772 45.9226 38.8868C43.6725 40.9232 41.9268 43.6646 40.6854 47.1109C39.5216 50.4788 38.9009 54.1993 38.8233 58.2721V86.1165H24.1592Z" fill="#008236"/>
<path d="M1.86211 86.1179V24.6723H16.5262V86.1179H1.86211ZM9.19417 15.0383C6.24583 15.0383 3.95698 14.4117 2.32764 13.1585C0.775879 11.827 0 9.94723 0 7.51916C0 5.0911 0.775879 3.25047 2.32764 1.99728C3.95698 0.665758 6.24583 0 9.19417 0C12.2977 0 14.6253 0.626598 16.1771 1.87979C17.7288 3.13299 18.5047 5.01278 18.5047 7.51916C18.5047 9.94723 17.6901 11.827 16.0607 13.1585C14.5089 14.4117 12.2201 15.0383 9.19417 15.0383Z" fill="#008236"/>
</svg>
