<svg width="140" height="40" viewBox="0 0 140 40" fill="none" xmlns="http://www.w3.org/2000/svg">
<path d="M112.598 25.9009C112.598 17.7301 118.364 10.6807 126.564 10.6807C133.652 10.6807 139.789 15.8075 139.789 23.2307L120.586 24.8862C120.692 29.2654 123.654 34.5524 129.05 34.5524C132.171 34.5524 135.345 32.4697 136.826 30.0665L140 32.9503C137.408 36.9556 132.436 39.8929 127.357 39.8929C119.316 39.8929 112.598 33.8582 112.598 25.9009ZM120.586 21.2013L133.441 20.3469C133.07 16.9824 130.901 14.0452 127.304 14.0452C122.649 14.0452 121.115 17.0358 120.586 21.2013Z" fill="#008236"/>
<path d="M113.622 32.8975V37.1165C111.136 38.6652 108.438 39.4129 105.475 39.4129C97.4341 39.4129 90.4512 33.9122 90.4512 25.3675C90.4512 16.716 97.0638 10.7882 105.475 10.7882C107.485 10.7882 110.501 11.2154 112.246 12.1767V17.0365C110.607 14.8469 108.332 13.6186 105.581 13.6186C100.661 13.6186 98.2276 16.8228 98.2276 21.5758C98.2276 27.1833 102.83 34.7667 108.967 34.7667C110.818 34.7667 112.352 34.2326 113.622 32.8975Z" fill="#008236"/>
<path d="M77.1646 10.5742C85.0468 10.5742 92.2943 16.1283 92.2943 24.7264C92.2943 33.4847 85.4701 40 77.1646 40C69.1236 40 62.1406 34.3391 62.1406 25.5808C62.1406 16.6623 68.7533 10.5742 77.1646 10.5742ZM78.1697 36.6355C82.0315 36.6355 83.354 30.1202 83.354 26.9694C83.354 22.0562 81.2909 12.8706 76.0007 13.8853C72.0332 14.6864 71.028 20.2938 71.028 23.1776C71.028 27.6102 72.5093 36.6355 78.1697 36.6355Z" fill="#008236"/>
<path d="M45.4449 39.1466L35.9756 11.2695H43.3818L49.7828 33.7527H50.5763L56.9774 11.2695H64.1719L54.6497 39.1466H45.4449Z" fill="#008236"/>
<path d="M10.9814 39.1442V11.2138H16.5361L16.3774 19.7585H17.3296C17.8233 17.6579 18.4758 15.9312 19.2869 14.5783C20.1334 13.2253 21.209 12.2107 22.5139 11.5342C23.8188 10.8578 25.3353 10.5195 27.0634 10.5195C30.2022 10.5195 32.5828 11.641 34.2051 13.884C35.8626 16.127 36.6914 19.5983 36.6914 24.2978V39.1442H29.973V24.9921C29.973 21.9659 29.5145 19.7585 28.5975 18.37C27.7159 16.9458 26.3933 16.2338 24.63 16.2338C23.1487 16.2338 21.8967 16.7144 20.874 17.6757C19.8512 18.6014 19.0577 19.8475 18.4934 21.414C17.9644 22.9449 17.6823 24.6361 17.647 26.4874V39.1442H10.9814Z" fill="#0D542B"/>
<path d="M0.84642 39.1454V11.2149H7.51197V39.1454H0.84642ZM4.1792 6.83575C2.83903 6.83575 1.79864 6.55093 1.05802 5.98128C0.352675 5.37603 0 4.52157 0 3.41788C0 2.31419 0.352675 1.47752 1.05802 0.907874C1.79864 0.302624 2.83903 0 4.1792 0C5.5899 0 6.64792 0.284824 7.35327 0.854471C8.05862 1.42412 8.41129 2.27858 8.41129 3.41788C8.41129 4.52157 8.04099 5.37603 7.30037 5.98128C6.59502 6.55093 5.55463 6.83575 4.1792 6.83575Z" fill="#0D542B"/>
</svg>
