<svg width="199" height="46" viewBox="0 0 199 46" fill="none" xmlns="http://www.w3.org/2000/svg">
<path fill-rule="evenodd" clip-rule="evenodd" d="M76.8638 2.60719L76.8619 2.6091C78.9536 3.18636 80.4107 4.29489 81.1537 5.96639C81.8731 7.54667 82.1194 9.39986 81.9132 11.5091C81.7496 13.5529 81.3622 15.6731 80.7529 17.8686L80.3732 19.3574C81.3052 19.5348 82.2516 19.6302 83.2146 19.6303C83.4645 19.6303 83.7032 19.6472 83.9283 19.6857C86.7931 13.8196 92.7986 10.1941 99.8873 10.194C109.204 10.194 117.772 16.6993 117.772 26.7686C117.771 37.0251 109.704 44.6544 99.8873 44.6544C90.3828 44.6543 82.129 38.0253 82.1288 27.7687C82.1288 27.1559 82.1563 26.5543 82.2089 25.9651C81.6133 25.9373 81.0252 25.8881 80.4457 25.8105H80.4419C79.7062 25.7072 79.0005 25.5849 78.3237 25.4516C76.8077 29.3502 75.0051 32.8401 72.906 35.9148L72.9041 35.9129C70.7888 39.0309 68.4433 41.5034 65.8606 43.3165C63.3036 45.0997 60.5663 46 57.6607 46C50.6228 45.9998 47.1133 42.9203 46.5564 36.0827C46.3113 33.0724 46.5375 29.6129 47.2262 25.7112C47.9137 21.7769 48.9052 17.6068 50.1974 13.202V13.1963C50.5019 12.2131 51.0474 11.5081 51.8652 11.1731C54.5169 9.9543 59.4791 11.2872 58.4603 14.9599L58.4584 14.9675C57.2125 19.1541 56.3298 22.7206 55.8097 25.6692C55.2884 28.5857 55.0312 30.9765 55.0311 32.8438C54 48 70.5 29.3949 72.2171 22.6918C63.2902 17.8686 65.1305 -0.922182 76.8638 2.60719ZM107.204 29.3949C107.204 23.641 104.765 12.8841 98.5114 14.0724C93.8223 15.0108 92.634 21.5762 92.6339 24.9535C92.6339 30.1445 94.0936 40.715 101.076 40.715C105.5 40.715 107.204 33.0849 107.204 29.3949ZM74.9479 8.7759C74.7929 8.87221 74.5805 9.04707 74.3067 9.31604L74.2953 9.3275L74.2934 9.32559C74.0857 9.5157 73.9053 9.83193 73.7762 10.3124C73.6473 10.7923 73.5778 11.4137 73.5778 12.1847C73.5779 13.6727 73.9312 14.9412 74.6178 16.0115C75.1017 14.1899 75.3807 12.79 75.4555 11.7992L75.4574 11.7839C75.5777 10.7199 75.5689 10.0087 75.467 9.60807L75.4612 9.59089L75.4593 9.57371C75.4213 9.33074 75.3765 9.15093 75.3296 9.02784C75.2886 8.92054 75.2569 8.88348 75.2513 8.87706L75.2284 8.86179L75.2093 8.8408C75.1503 8.78275 75.1031 8.74298 75.07 8.71483C75.043 8.72572 75.0014 8.74269 74.9479 8.7759Z" fill="#1C1917"/>
<path d="M156.207 10.3669C161.397 10.3669 165.461 12.0564 168.025 16.6845L164.273 19.1237C162.397 15.9966 160.27 14.3693 157.457 14.3693C155.643 14.3695 152.955 15.1203 152.955 17.3716C152.955 23.6883 170.026 24.8775 170.026 35.8224C170.026 42.5135 163.648 44.8901 157.083 44.8903C150.955 44.8903 147.077 42.8262 144.326 37.3225L148.577 35.6334C149.39 38.1351 152.455 40.8244 156.207 40.7619C158.27 40.6993 160.897 39.8234 160.897 36.9465C160.896 29.8801 144.639 30.0666 144.639 19.4348C144.639 13.1186 150.704 10.3669 156.207 10.3669Z" fill="#1C1917"/>
<path fill-rule="evenodd" clip-rule="evenodd" d="M186.119 10.4929C192.435 10.493 198.937 12.6816 198.937 19.8738L199 44.0142H191.747L189.121 41.3879C186.87 43.3893 183.867 44.6402 180.866 44.6402C175.864 44.6401 171.237 41.8882 171.236 36.8855C171.236 29.5683 181.053 25.3153 189.182 22.8761C189.182 18.8734 189.119 14.7453 184.867 14.7453C181.178 14.7456 178.865 16.7467 177.49 19.3108L174.864 16.3715C177.678 11.6808 181.929 10.4929 186.119 10.4929ZM189.121 27.5656C182.889 29.9 175.691 39.3247 184.243 39.3247C185.994 39.3244 187.808 37.885 189.121 37.0095V27.5656Z" fill="#1C1917"/>
<path d="M130.057 9.94509C135.247 9.94512 139.312 11.6346 141.875 16.2627L138.124 18.7019C136.248 15.5748 134.121 13.9475 131.307 13.9475C129.494 13.9476 126.806 14.6985 126.806 16.9498C126.806 23.2665 143.877 24.4557 143.877 35.4005C143.877 42.0917 137.499 44.4683 130.933 44.4685C124.805 44.4685 120.928 42.4044 118.176 36.9007L122.428 35.2116C123.241 37.7133 126.306 40.4026 130.057 40.3401C132.121 40.2775 134.748 39.4016 134.748 36.5247C134.747 29.4583 118.489 29.6448 118.489 19.013C118.49 12.6967 124.555 9.94509 130.057 9.94509Z" fill="#1C1917"/>
<path d="M9.44215 43.6543H0L0.125947 43.2783C0.688513 41.0273 0.999888 38.5886 0.999943 36.2125V7.44177C0.99987 4.87781 0.999943 7.44177 0.999943 0H9.44215V43.6543Z" fill="#1C1917"/>
<path d="M31.8721 10.444C38.187 10.4445 41.251 14.9471 41.2513 21.1381V43.5913H32.4961V21.2641C32.4961 17.6368 30.6208 16.1987 28.5574 16.1986C25.7438 16.1986 22.4916 18.6991 22.491 21.6382V43.5913H13.6118V10.82H22.491V14.6335C24.8046 11.8192 28.4955 10.444 31.8721 10.444Z" fill="#1C1917"/>
</svg>
