<svg width="199" height="49" viewBox="0 0 199 49" fill="none" xmlns="http://www.w3.org/2000/svg">
<path fill-rule="evenodd" clip-rule="evenodd" d="M75.8698 5.54954C77 5.88998 80.6094 6.36645 82.1593 8.9132C83.2966 10.782 83.125 12.3512 82.9188 14.4632C82.7552 16.5098 82.3679 18.6328 81.7586 20.8313L81.3789 22.322C82.3108 22.4996 83.2572 22.5952 84.2202 22.5953C84.47 22.5953 84.7088 22.6122 84.9338 22.6507C87.7985 16.7769 93.8037 13.1465 100.892 13.1464C110.209 13.1464 118.776 19.6604 118.776 29.743C118.775 40.0131 110.709 47.6526 100.892 47.6526C91.388 47.6525 83.1346 41.0147 83.1344 32.7445C83.1344 31 89.5 27.7836 89.5 27.7836C88 28.5 83.8102 28.9662 83.2146 28.9384C82.6189 28.9106 82.0309 28.8614 81.4514 28.7836H81.4476C80.712 28.6802 80.0063 28.5578 79.3295 28.4243C77.8136 32.3281 76.0111 35.8226 73.9121 38.9014L73.9102 38.8995C71.795 42.0217 69.4497 44.4975 66.8671 46.3129C64.3102 48.0985 61.573 49 58.6677 49C51.6301 48.9998 48.1207 45.9162 47.5639 39.0696C47.3189 36.0552 47.545 32.5911 48.2337 28.6842C48.9212 24.7447 49.9126 20.5691 51.2047 16.1584V16.1527C51.5092 15.1682 52.0547 14.4622 52.8725 14.1269C55.524 12.9064 60.486 14.241 59.4672 17.9186L59.4653 17.9263C58.2194 22.1185 57.3368 25.6896 56.8167 28.6422C56.2954 31.5625 56.0382 33.9566 56.0382 35.8263C55.0071 51.0027 69.5063 32.3728 71.2234 25.6608C62.2969 20.8313 64.1371 2.01548 75.8698 5.54954ZM108.208 32.3728C108.208 26.6113 105.769 15.8401 99.5162 17.0299C94.8273 17.9697 93.6391 24.5437 93.639 27.9255C93.639 33.1234 95.0986 43.708 102.081 43.708C106.504 43.708 108.208 36.0677 108.208 32.3728ZM71.5 14.5C71.5001 15.9899 72.5 17.9263 73.6238 18.9717C74 17.5 76.5 13 75.5 12C74.1974 10.6974 71.5 11.5 71.5 14.5Z" fill="#292524"/>
<path d="M156.209 13.3195C161.399 13.3196 165.463 15.0113 168.026 19.6455L164.275 22.088C162.399 18.9567 160.273 17.3273 157.459 17.3273C155.646 17.3274 152.957 18.0793 152.957 20.3335C152.957 26.6587 170.028 27.8494 170.028 38.8088C170.027 45.5089 163.65 47.8887 157.085 47.8888C150.957 47.8888 147.08 45.822 144.329 40.311L148.58 38.6196C149.393 41.1246 152.457 43.8176 156.209 43.7549C158.272 43.6923 160.899 42.8152 160.899 39.9345C160.898 32.8587 144.641 33.0454 144.641 22.3995C144.642 16.0749 150.707 13.3195 156.209 13.3195Z" fill="#292524"/>
<path fill-rule="evenodd" clip-rule="evenodd" d="M186.12 13.4457C192.435 13.4458 198.937 15.6373 198.937 22.8391L199 47.0116H191.747L189.121 44.3818C186.87 46.3858 183.868 47.6384 180.867 47.6384C175.865 47.6383 171.238 44.8827 171.238 39.8734C171.238 32.5465 181.054 28.2878 189.182 25.8454C189.182 21.8373 189.12 17.7038 184.868 17.7038C181.179 17.7041 178.866 19.7078 177.491 22.2753L174.865 19.3321C177.679 14.6352 181.93 13.4457 186.12 13.4457ZM189.121 30.5411C182.89 32.8786 175.692 42.3158 184.244 42.3158C185.995 42.3156 187.808 40.8743 189.121 39.9976V30.5411Z" fill="#292524"/>
<path d="M130.061 12.8972C135.251 12.8972 139.315 14.5889 141.878 19.2232L138.127 21.6656C136.251 18.5344 134.125 16.9049 131.311 16.9049C129.498 16.905 126.809 17.6569 126.809 19.9112C126.809 26.2363 143.88 27.4271 143.88 38.3865C143.88 45.0865 137.502 47.4663 130.937 47.4664C124.809 47.4664 120.931 45.3997 118.18 39.8887L122.432 38.1973C123.244 40.7023 126.309 43.3952 130.061 43.3326C132.124 43.2699 134.751 42.3928 134.751 39.5122C134.75 32.4363 118.493 32.623 118.493 21.9771C118.493 15.6525 124.559 12.8972 130.061 12.8972Z" fill="#292524"/>
<path d="M32.8804 13.3968C39.195 13.3972 42.2588 17.9058 42.2591 24.1051V46.5881H33.5044V24.2312C33.5044 20.5991 31.6293 19.1591 29.566 19.159C26.7526 19.159 23.5006 21.6628 23.4999 24.6058V46.5881H14.6212V13.7733H23.4999V17.5918C25.8134 14.7738 29.504 13.3968 32.8804 13.3968Z" fill="#292524"/>
<path d="M5.49971 11.0146C2.47487 11.0146 0 8.53632 0 5.5073C0 2.47829 2.47487 0 5.49971 0C8.52455 0 10.9994 2.47829 10.9994 5.5073C10.9994 8.53632 8.52455 11.0146 5.49971 11.0146ZM0.370097 13.7717H9.99921V46.5881H0.370097V13.7717Z" fill="#292524"/>
</svg>
