<svg width="200" height="49" viewBox="0 0 200 49" fill="none" xmlns="http://www.w3.org/2000/svg">
<path fill-rule="evenodd" clip-rule="evenodd" d="M76.8698 5.54954L76.8679 5.55145C78.9594 6.12947 81.4164 7.23948 82.1593 8.9132C82.8787 10.4956 83.125 12.3512 82.9188 14.4632C82.7552 16.5098 82.3679 18.6328 81.7586 20.8313L81.3789 22.322C82.3108 22.4996 83.2572 22.5952 84.2202 22.5953C84.47 22.5953 84.7088 22.6122 84.9338 22.6507C87.7985 16.7769 93.8037 13.1465 100.892 13.1464C110.209 13.1464 118.776 19.6604 118.776 29.743C118.775 40.0131 110.709 47.6526 100.892 47.6526C91.388 47.6525 83.1346 41.0147 83.1344 30.7445C83.1344 30.1309 83.1619 29.5284 83.2146 28.9384C82.6189 28.9106 82.0309 28.8614 81.4514 28.7836H81.4476C80.712 28.6802 80.0063 28.5578 79.3295 28.4243C77.8136 32.3281 76.0111 35.8226 73.9121 38.9014L73.9102 38.8995C71.795 42.0217 69.4497 44.4975 66.8671 46.3129C64.3102 48.0985 61.573 49 58.6677 49C51.6301 48.9998 48.1207 45.9162 47.5639 39.0696C47.3189 36.0552 47.545 32.5911 48.2337 28.6842C48.9212 24.7447 49.9126 20.5691 51.2047 16.1584V16.1527C51.5092 15.1682 52.0547 14.4622 52.8725 14.1269C55.524 12.9064 60.486 14.241 59.4672 17.9186L59.4653 17.9263C58.2194 22.1185 57.3368 25.6896 56.8167 28.6422C56.2954 31.5625 56.0382 33.9566 56.0382 35.8263C55.0071 51.0027 70.5063 32.3728 72.2234 25.6608C63.2969 20.8313 65.1371 2.01548 76.8698 5.54954ZM108.208 32.3728C108.208 26.6113 105.769 15.8401 99.5162 17.0299C94.8273 17.9697 93.6391 24.5437 93.639 27.9255C93.639 33.1234 95.0986 43.708 102.081 43.708C106.504 43.708 108.208 36.0677 108.208 32.3728ZM74.954 11.7264C74.799 11.8229 74.5865 11.998 74.3128 12.2673L74.3014 12.2788L74.2995 12.2769C74.0918 12.4672 73.9115 12.7839 73.7823 13.2649C73.6535 13.7455 73.5839 14.3677 73.5839 15.1398C73.584 16.6297 73.9373 17.9 74.6239 18.9717C75.1078 17.1477 75.3868 15.7459 75.4615 14.7537L75.4635 14.7384C75.5837 13.673 75.5749 12.9609 75.473 12.5597L75.4673 12.5425L75.4654 12.5253C75.4273 12.282 75.3826 12.102 75.3356 11.9787C75.2946 11.8713 75.263 11.8342 75.2574 11.8277L75.2345 11.8124L75.2154 11.7914C75.1563 11.7333 75.1092 11.6935 75.0761 11.6653C75.049 11.6762 75.0075 11.6932 74.954 11.7264Z" fill="#292524"/>
<path d="M157.209 13.3195C162.399 13.3196 166.463 15.0113 169.026 19.6455L165.275 22.088C163.399 18.9567 161.273 17.3273 158.459 17.3273C156.646 17.3274 153.957 18.0793 153.957 20.3335C153.957 26.6587 171.028 27.8494 171.028 38.8088C171.027 45.5089 164.65 47.8887 158.085 47.8888C151.957 47.8888 148.08 45.822 145.329 40.311L149.58 38.6196C150.393 41.1246 153.457 43.8176 157.209 43.7549C159.272 43.6923 161.899 42.8152 161.899 39.9345C161.898 32.8587 145.641 33.0454 145.641 22.3995C145.642 16.0749 151.707 13.3195 157.209 13.3195Z" fill="#292524"/>
<path fill-rule="evenodd" clip-rule="evenodd" d="M187.12 13.4457C193.435 13.4458 199.937 15.6373 199.937 22.8391L200 47.0116H192.747L190.121 44.3818C187.87 46.3858 184.868 47.6384 181.867 47.6384C176.865 47.6383 172.238 44.8827 172.238 39.8734C172.238 32.5465 182.054 28.2878 190.182 25.8454C190.182 21.8373 190.12 17.7038 185.868 17.7038C182.179 17.7041 179.866 19.7078 178.491 22.2753L175.865 19.3321C178.679 14.6352 182.93 13.4457 187.12 13.4457ZM190.121 30.5411C183.89 32.8786 176.692 42.3158 185.244 42.3158C186.995 42.3156 188.808 40.8743 190.121 39.9976V30.5411Z" fill="#292524"/>
<path d="M131.061 12.8972C136.251 12.8972 140.315 14.5889 142.878 19.2232L139.127 21.6656C137.251 18.5344 135.125 16.9049 132.311 16.9049C130.498 16.905 127.809 17.6569 127.809 19.9112C127.809 26.2363 144.88 27.4271 144.88 38.3865C144.88 45.0865 138.502 47.4663 131.937 47.4664C125.809 47.4664 121.931 45.3997 119.18 39.8887L123.432 38.1973C124.244 40.7023 127.309 43.3952 131.061 43.3326C133.124 43.2699 135.751 42.3928 135.751 39.5122C135.75 32.4363 119.493 32.623 119.493 21.9771C119.493 15.6525 125.559 12.8972 131.061 12.8972Z" fill="#292524"/>
<path d="M32.8804 13.3968C39.195 13.3972 42.2588 17.9058 42.2591 24.1051V46.5881H33.5044V24.2312C33.5044 20.5991 31.6293 19.1591 29.566 19.159C26.7526 19.159 23.5006 21.6628 23.4999 24.6058V46.5881H14.6212V13.7733H23.4999V17.5918C25.8134 14.7738 29.504 13.3968 32.8804 13.3968Z" fill="#292524"/>
<path d="M5.49971 11.0146C2.47487 11.0146 0 8.53632 0 5.5073C0 2.47829 2.47487 0 5.49971 0C8.52455 0 10.9994 2.47829 10.9994 5.5073C10.9994 8.53632 8.52455 11.0146 5.49971 11.0146ZM0.370097 13.7717H9.99921V46.5881H0.370097V13.7717Z" fill="#292524"/>
</svg>
