<svg width="114" height="42" viewBox="0 0 114 42" fill="none" xmlns="http://www.w3.org/2000/svg">
<path d="M99.0339 40.1737C96.2742 40.1737 93.7444 39.5191 91.4447 38.21C89.1803 36.9009 87.3758 35.1142 86.0314 32.8499C84.6869 30.5855 84.0146 28.0204 84.0146 25.1545C84.0146 22.2533 84.6869 19.6882 86.0314 17.4592C87.3758 15.1949 89.1803 13.4258 91.4447 12.1521C93.709 10.843 96.2388 10.1885 99.0339 10.1885C101.864 10.1885 104.394 10.843 106.623 12.1521C108.887 13.4258 110.674 15.1949 111.983 17.4592C113.328 19.6882 114 22.2533 114 25.1545C114 28.0558 113.328 30.6386 111.983 32.9029C110.639 35.1673 108.834 36.954 106.57 38.2631C104.306 39.5368 101.794 40.1737 99.0339 40.1737ZM99.0339 34.6012C100.732 34.6012 102.236 34.1943 103.545 33.3806C104.854 32.5668 105.88 31.4523 106.623 30.0371C107.401 28.5865 107.791 26.959 107.791 25.1545C107.791 23.3501 107.401 21.7403 106.623 20.3251C105.88 18.9098 104.854 17.7953 103.545 16.9816C102.236 16.1678 100.732 15.7609 99.0339 15.7609C97.371 15.7609 95.8673 16.1678 94.5228 16.9816C93.2137 17.7953 92.17 18.9098 91.3916 20.3251C90.6486 21.7403 90.2771 23.3501 90.2771 25.1545C90.2771 26.959 90.6486 28.5865 91.3916 30.0371C92.17 31.4523 93.2137 32.5668 94.5228 33.3806C95.8673 34.1943 97.371 34.6012 99.0339 34.6012Z" fill="#016630"/>
<path d="M74.0928 39.538V10.8265H80.0898V39.538H74.0928ZM74.0928 6.89925V0H80.0898V6.89925H74.0928Z" fill="#016630"/>
<path d="M51.0784 40.6114C49.0822 40.6114 47.5192 40.2348 46.3892 39.4815C45.2593 38.6906 44.4684 37.6737 44.0164 36.4308C43.6021 35.1502 43.4515 33.7567 43.5645 32.2502C43.6775 30.706 43.9788 29.1618 44.4684 27.6176L48.1971 16.2056C48.3478 15.7159 48.3478 15.3205 48.1971 15.0192C48.0464 14.6802 47.7451 14.5107 47.2932 14.5107C46.8789 14.5107 46.4457 14.6425 45.9938 14.9062C45.5418 15.1322 45.0145 15.5464 44.4119 16.1491C43.8469 16.714 43.169 17.5049 42.3781 18.5219C41.9261 19.0115 41.5118 19.3128 41.1352 19.4258C40.7962 19.5388 40.3066 19.4446 39.6663 19.1433C38.9507 18.729 38.6117 18.2959 38.6494 17.8439C38.687 17.3543 38.8377 16.9023 39.1013 16.488C39.9299 15.3205 40.7774 14.2659 41.6436 13.3243C42.5476 12.3827 43.5456 11.6483 44.6379 11.121C45.7301 10.556 46.9542 10.2736 48.3101 10.2736C49.666 10.2736 50.7017 10.5184 51.4173 11.008C52.1329 11.4976 52.6037 12.1379 52.8297 12.9288C53.0557 13.7198 53.1122 14.6049 52.9992 15.5841C52.8862 16.5257 52.6979 17.4296 52.4343 18.2959L49.4965 27.2786C49.1952 28.2955 48.9315 29.3124 48.7056 30.3293C48.4796 31.3462 48.3854 32.2878 48.4231 33.1541C48.4984 34.0203 48.8185 34.7359 49.3835 35.3009C49.9485 35.8282 50.8336 36.0918 52.0388 36.0918C53.3194 36.0918 54.5623 35.6964 55.7675 34.9054C57.0104 34.1145 58.178 33.0599 59.2702 31.7417C60.3624 30.4235 61.3229 28.9546 62.1515 27.3351C62.9801 25.7156 63.6204 24.0584 64.0723 22.3635C64.5619 20.631 64.8068 19.0115 64.8068 17.5049C64.8068 17.0906 64.8068 16.6575 64.8068 16.2056C64.8068 15.7159 64.7691 15.2263 64.6938 14.7367C64.6561 14.2471 64.5808 13.7574 64.4678 13.2678C64.3548 12.5899 64.3548 12.0249 64.4678 11.573C64.5808 11.121 64.8256 10.782 65.2022 10.556C65.5789 10.3301 66.0873 10.2171 66.7276 10.2171C67.4056 10.2171 67.9517 10.4242 68.366 10.8385C68.7803 11.2528 69.1004 11.9496 69.3264 12.9288C69.4017 13.3431 69.4582 13.7763 69.4959 14.2282C69.5712 14.6425 69.6089 15.0757 69.6089 15.5276C69.6465 15.9796 69.6654 16.4504 69.6654 16.94C69.6654 18.8985 69.3641 20.9511 68.7614 23.098C68.1588 25.2448 67.2926 27.3539 66.1626 29.4254C65.0704 31.4969 63.7522 33.3801 62.208 35.0749C60.6638 36.7698 58.9501 38.1257 57.0669 39.1426C55.1837 40.1218 53.1875 40.6114 51.0784 40.6114Z" fill="#016630"/>
<path fill-rule="evenodd" clip-rule="evenodd" d="M46.0266 40.0124L46.0206 40.0082C44.7875 39.145 43.9114 38.023 43.4123 36.6505L43.4083 36.6397L43.4048 36.6287C42.9619 35.2598 42.805 33.7819 42.9234 32.2027C43.0402 30.6063 43.3516 29.0129 43.8556 27.4233L43.8573 27.4179L47.5842 16.0115C47.7091 15.6029 47.6681 15.3986 47.6221 15.3067L47.6156 15.2936L47.6096 15.2803C47.5862 15.2274 47.564 15.2099 47.543 15.1981C47.5137 15.1816 47.4417 15.1536 47.2932 15.1536C47.019 15.1536 46.6968 15.2403 46.3177 15.4615L46.2998 15.4719L46.2813 15.4812C45.9192 15.6622 45.4489 16.0212 44.8665 16.6036C44.3282 17.1419 43.6687 17.9096 42.8855 18.9165L42.8689 18.9379L42.8504 18.9579C42.3709 19.4774 41.8645 19.8754 41.3287 20.0388C40.7395 20.2306 40.0517 20.0352 39.3926 19.725L39.3678 19.7133L39.3442 19.6996C38.5965 19.2668 37.9384 18.6483 38.0086 17.7926C38.0546 17.1985 38.239 16.6456 38.559 16.1429L38.5677 16.1292L38.5771 16.116C39.4196 14.9289 40.2839 13.8528 41.1705 12.8891L41.1751 12.884L41.1799 12.8791C42.1306 11.8888 43.1874 11.1086 44.3505 10.5459C45.541 9.9318 46.8654 9.63072 48.3101 9.63072C49.728 9.63072 50.9131 9.88407 51.7804 10.4775C52.6124 11.0468 53.1783 11.809 53.4479 12.7522C53.7012 13.6389 53.7586 14.6109 53.6378 15.6578L53.6375 15.6607C53.5202 16.638 53.3244 17.579 53.0493 18.483L53.0473 18.4894L50.1103 27.4698C49.8142 28.4699 49.5552 29.4695 49.3331 30.4688C49.1182 31.4357 49.0316 32.3156 49.0647 33.112C49.1299 33.831 49.3894 34.394 49.83 34.8382C50.2257 35.2023 50.9161 35.449 52.0388 35.449C53.1787 35.449 54.3007 35.0991 55.4148 34.368L55.4223 34.363C56.6004 33.6134 57.7189 32.6063 58.7752 31.3315C59.8357 30.0517 60.7706 28.6226 61.5792 27.0423C62.3878 25.4618 63.0114 23.8471 63.4512 22.1979L63.4536 22.1887C63.9302 20.5023 64.1639 18.9422 64.1639 17.5049V16.2056C64.1639 15.749 64.1288 15.2921 64.0584 14.8344L64.0547 14.8103L64.0528 14.786C64.0177 14.3292 63.9473 13.8714 63.8414 13.4124L63.8369 13.393L63.8337 13.3735C63.7125 12.6463 63.7021 11.9852 63.8441 11.417C63.9957 10.8108 64.3391 10.3242 64.8715 10.0048C65.3837 9.6975 66.0209 9.57422 66.7276 9.57422C67.5471 9.57422 68.2666 9.83004 68.8205 10.384C69.3613 10.9247 69.7168 11.7617 69.9528 12.7843L69.9562 12.799L69.9589 12.8138C70.0365 13.2406 70.0947 13.6842 70.1339 14.1443C70.2114 14.5812 70.2502 15.0335 70.2517 15.5006C70.2895 15.9635 70.3082 16.4434 70.3082 16.94C70.3082 18.9647 69.9967 21.076 69.3804 23.2717C68.7643 25.4664 67.8799 27.619 66.7292 29.7293C65.6125 31.8463 64.2638 33.773 62.6832 35.5079C61.0937 37.2524 59.3236 38.6546 57.3723 39.7082L57.3635 39.713C55.3893 40.7395 53.2915 41.2543 51.0784 41.2543C49.0117 41.2543 47.3069 40.8659 46.0327 40.0164L46.0266 40.0124ZM66.1626 29.4254C67.2926 27.3539 68.1588 25.2448 68.7614 23.098C69.3641 20.9511 69.6654 18.8985 69.6654 16.94C69.6654 16.4504 69.6465 15.9796 69.6089 15.5276C69.6089 15.0757 69.5712 14.6425 69.4959 14.2282C69.4582 13.7763 69.4017 13.3431 69.3264 12.9288C69.1004 11.9496 68.7803 11.2528 68.366 10.8385C67.9517 10.4242 67.4056 10.2171 66.7276 10.2171C66.0873 10.2171 65.5789 10.3301 65.2022 10.556C64.8256 10.782 64.5808 11.121 64.4678 11.573C64.3548 12.0249 64.3548 12.5899 64.4678 13.2678C64.5808 13.7574 64.6561 14.2471 64.6938 14.7367C64.7691 15.2263 64.8068 15.7159 64.8068 16.2056V17.5049C64.8068 19.0115 64.5619 20.631 64.0723 22.3635C63.6204 24.0584 62.9801 25.7156 62.1515 27.3351C61.3229 28.9546 60.3624 30.4235 59.2702 31.7417C58.178 33.0599 57.0104 34.1145 55.7675 34.9054C54.5623 35.6964 53.3194 36.0918 52.0388 36.0918C50.8336 36.0918 49.9485 35.8282 49.3835 35.3009C48.8185 34.7359 48.4984 34.0203 48.4231 33.1541C48.3854 32.2878 48.4796 31.3462 48.7056 30.3293C48.9315 29.3124 49.1952 28.2955 49.4965 27.2786L52.4343 18.2959C52.6979 17.4296 52.8862 16.5257 52.9992 15.5841C53.1122 14.6049 53.0557 13.7198 52.8297 12.9288C52.6037 12.1379 52.1329 11.4976 51.4173 11.008C50.7017 10.5184 49.666 10.2736 48.3101 10.2736C46.9542 10.2736 45.7301 10.556 44.6379 11.121C43.5456 11.6483 42.5476 12.3827 41.6436 13.3243C40.7774 14.2659 39.9299 15.3205 39.1013 16.488C38.8377 16.9023 38.687 17.3543 38.6494 17.8439C38.6117 18.2959 38.9507 18.729 39.6663 19.1433C40.3066 19.4446 40.7962 19.5388 41.1352 19.4258C41.5118 19.3128 41.9261 19.0115 42.3781 18.5219C43.169 17.5049 43.8469 16.714 44.4119 16.1491C45.0145 15.5464 45.5418 15.1322 45.9938 14.9062C46.4457 14.6425 46.8789 14.5107 47.2932 14.5107C47.7451 14.5107 48.0464 14.6802 48.1971 15.0192C48.3478 15.3205 48.3478 15.7159 48.1971 16.2056L44.4684 27.6176C43.9788 29.1618 43.6775 30.706 43.5645 32.2502C43.4515 33.7567 43.6021 35.1502 44.0164 36.4308C44.4684 37.6737 45.2593 38.6906 46.3892 39.4815C47.5192 40.2348 49.0822 40.6114 51.0784 40.6114C53.1875 40.6114 55.1837 40.1218 57.0669 39.1426C58.9501 38.1257 60.6638 36.7698 62.208 35.0749C63.7522 33.3801 65.0704 31.4969 66.1626 29.4254Z" fill="#016630"/>
<path d="M11.9478 39.5378V10.8263H17.6795V16.4518L16.9895 15.7088C17.6972 13.9044 18.8294 12.5423 20.3861 11.6224C21.9429 10.6671 23.7473 10.1895 25.7994 10.1895C27.9223 10.1895 29.7975 10.6494 31.425 11.5693C33.0525 12.4892 34.3262 13.7629 35.2461 15.3904C36.166 17.0179 36.626 18.8931 36.626 21.016V39.5378H30.682V22.6081C30.682 21.1575 30.4166 19.9369 29.8859 18.9462C29.3552 17.9202 28.5945 17.1418 27.6038 16.6111C26.6486 16.045 25.5517 15.7619 24.3134 15.7619C23.0751 15.7619 21.9606 16.045 20.9699 16.6111C20.0146 17.1418 19.2716 17.9202 18.7409 18.9462C18.2102 19.9722 17.9448 21.1929 17.9448 22.6081V39.5378H11.9478Z" fill="#016630"/>
<path d="M0 39.538V10.8265H5.99708V39.538H0ZM0 6.89925V0H5.99708V6.89925H0Z" fill="#016630"/>
</svg>
